# xmcd
#
# Track frame offsets: 
#        150
#        18366
#        36228
#        52380
#        73266
#        88933
#        111798
#        129584
#        148735
#        167395
#        184860
#        206946
#        221589
#        242030
#        258369
#        289493
#
# Disc length: 4698 seconds
#
# Revision: 0
# Processed by: cddbd v1.5.2PL0 Copyright (c) Steve Scherf et al.
# Submitted via: ExactAudioCopy v0.95b4
#
DISCID=05125810
DTITLE=Corinne Bailey Rae - Corinne Bailey Rae  - Limited Edition
DYEAR=2006
DGENRE=R&B
TTITLE0=Like A Star
TTITLE1=Enchantment
TTITLE2=Put Your Records On
TTITLE3=Till It Happens To You
TTITLE4=Trouble Sleeping
TTITLE5=Call Me When You Get This
TTITLE6=Choux Pastry Heart
TTITLE7=Breathless
TTITLE8=I'd Like To
TTITLE9=Butterfly
TTITLE10=Seasons Change
TTITLE11=Another Rainy Day
TTITLE12=Emeraldine
TTITLE13=Put Your Records On (Acoustic)
TTITLE14=Like A Star (Acoustic)
TTITLE15=Video Track
EXTD=
EXTT0=
EXTT1=
EXTT2=
EXTT3=
EXTT4=
EXTT5=
EXTT6=
EXTT7=
EXTT8=
EXTT9=
EXTT10=
EXTT11=
EXTT12=
EXTT13=
EXTT14=
EXTT15=
PLAYORDER=
